<svg xmlns="http://www.w3.org/2000/svg" viewBox="0 0 815.44 474.86"><defs><style>.cls-1,.cls-19,.cls-2,.cls-5,.cls-6{fill:#fff;}.cls-1,.cls-10,.cls-11,.cls-13,.cls-14,.cls-15,.cls-16,.cls-17,.cls-18,.cls-19,.cls-2,.cls-20,.cls-21,.cls-4,.cls-5,.cls-6,.cls-7,.cls-9{stroke:#5385c4;}.cls-1{stroke-width:4.52px;}.cls-10,.cls-11,.cls-15,.cls-16,.cls-2,.cls-4,.cls-6,.cls-7,.cls-9{stroke-width:4px;}.cls-3{fill:#338fff;}.cls-13,.cls-18,.cls-4{fill:#82b6e2;}.cls-24,.cls-5{stroke-width:2px;}.cls-17,.cls-21,.cls-23,.cls-24,.cls-6,.cls-7{stroke-linecap:round;}.cls-10,.cls-11,.cls-13,.cls-14,.cls-17,.cls-6,.cls-7,.cls-9{stroke-linejoin:round;}.cls-14,.cls-16,.cls-17,.cls-20,.cls-21,.cls-23,.cls-24,.cls-7{fill:none;}.cls-10,.cls-8{fill:#5385c4;}.cls-9{fill:#47c4c1;}.cls-11,.cls-15,.cls-22{fill:#48e3e2;}.cls-12{fill:#3db7b3;}.cls-13,.cls-14,.cls-17,.cls-21{stroke-width:3px;}.cls-18,.cls-19,.cls-20{stroke-width:4.9px;}.cls-23,.cls-24{stroke:#fff;stroke-miterlimit:10;}.cls-23{stroke-width:1.65px;stroke-dasharray:4 4;}.cls-24{stroke-dasharray:4;}</style></defs><title>Artboard 4</title><g id="Layer_1" data-name="Layer 1"><path class="cls-1" d="M616.9,296.21c5,1.25,7.69.53,7.69.53,8,0,14.47-7.93,14.47-17.72s-6.47-17.72-14.47-17.72a12.34,12.34,0,0,0-4.69.66m-1.12,7.62a11.43,11.43,0,0,1,4.81-.73c4.59,0,8.31,4.55,8.31,10.17s-3.72,10.17-8.31,10.17a21.88,21.88,0,0,1-6.19,0"/><path class="cls-2" d="M560,153,407,74.28a5.5,5.5,0,0,0-7.68,2.32L341.15,194.09l162.5,94.25L562.12,160.2A5.5,5.5,0,0,0,560,153Z"/><path class="cls-3" d="M544.14,156.51,412.08,89.92a4.74,4.74,0,0,0-6.63,2L360.06,185a4.18,4.18,0,0,0,1.66,5.44l133,77.17a4.18,4.18,0,0,0,5.85-1.78L546,162.72A4.75,4.75,0,0,0,544.14,156.51Z"/><path class="cls-4" d="M-1.5,218.92l-.09,6.25c0,1.88,1.83,5.91,4.91,7.66l101.88,58.6a12.09,12.09,0,0,0,12.09,0l150.12-86.34c3.91-2.58,5.43-6.33,5.41-8.33l0-7"/><path class="cls-2" d="M1.29,223.42l103.91,60a12.09,12.09,0,0,0,12.09,0l152.62-88a5.92,5.92,0,0,0,0-10.24L166.77,125.54a12.4,12.4,0,0,0-12.4,0L1.29,213.74A5.59,5.59,0,0,0,1.29,223.42Z"/><path class="cls-3" d="M32,207.52l128.3-74.08a1.53,1.53,0,0,1,1.52,0l94.47,54.74a1.52,1.52,0,0,1,0,2.63L128,264.73a1.53,1.53,0,0,1-1.52,0L32,210.15A1.52,1.52,0,0,1,32,207.52Z"/><ellipse class="cls-5" cx="64.16" cy="243.42" rx="7.38" ry="4.75"/><path class="cls-4" d="M502.77,288.92l.1,6.25c0,1.88-1.84,5.92-4.92,7.67L396.07,361.43a12.06,12.06,0,0,1-12.09,0L233.87,275.09c-3.92-2.59-5.44-6.33-5.42-8.34l0-7"/><path class="cls-2" d="M500,293.43l-103.91,60a12.06,12.06,0,0,1-12.09,0l-152.61-88a5.92,5.92,0,0,1,0-10.24L334.5,195.55a12.38,12.38,0,0,1,12.4,0L500,283.75A5.59,5.59,0,0,1,500,293.43Z"/><path class="cls-4" d="M14.18,276.63l.06,7.13a10.37,10.37,0,0,1-5.17,8.33l-48.46,28a12.06,12.06,0,0,1-12.09,0L-153,261.42c-2.34-1.41-5.09-4.33-5.09-8.16l-.08-7"/><path class="cls-2" d="M-155.39,251.09l103.91,60a12.06,12.06,0,0,0,12.09,0l50.63-29.37a5.91,5.91,0,0,0,0-10.23L-91.89,211.84a12.38,12.38,0,0,0-12.4,0l-51.1,29.57A5.59,5.59,0,0,0-155.39,251.09Z"/><line class="cls-6" x1="12.65" y1="319.83" x2="76.15" y2="356.33"/><line class="cls-6" x1="-0.1" y1="311.83" x2="4.9" y2="314.58"/><polyline class="cls-7" points="110.9 336.08 84.78 321.5 14.97 361.43 41.15 376.08"/><ellipse class="cls-8" cx="86.07" cy="363.13" rx="7.49" ry="4.31"/><ellipse class="cls-8" cx="120.57" cy="343.13" rx="7.49" ry="4.31"/><ellipse class="cls-8" cx="51.24" cy="383.46" rx="7.49" ry="4.31"/><path class="cls-8" d="M36.74,340.12l12.67-7.37a1.41,1.41,0,0,1,1.38,0l12.77,7.37a1.38,1.38,0,0,1,0,2.38l-12.67,7.37a1.41,1.41,0,0,1-1.38,0L36.74,342.5A1.37,1.37,0,0,1,36.74,340.12Z"/><polygon class="cls-9" points="504.62 331.26 486.52 331.26 486.52 341.69 486.52 341.69 533.05 368.6 533.05 314.87 504.62 331.26"/><polygon class="cls-9" points="561.51 331.26 533.09 314.85 533.05 314.87 533.05 368.6 579.58 341.69 579.58 331.26 561.51 331.26"/><polygon class="cls-10" points="579.58 331.26 533.09 304.42 523.51 309.94 570.02 336.79 579.58 331.26"/><polygon class="cls-11" points="523.51 309.94 486.52 331.26 533.05 358.17 570.02 336.79 523.51 309.94"/><polygon class="cls-12" points="555.09 337.54 521.72 318.28 518.62 320.06 551.97 339.35 555.09 337.54"/><polygon class="cls-12" points="547.72 341.75 514.35 322.49 511.25 324.27 544.6 343.56 547.72 341.75"/><path class="cls-13" d="M10.46,410.66l-95.11-55,0,0c-1.54-.89-2.68-1.64-2.68-3.66s1.2-3.66,2.68-3.66h.14l94.93,54.82h0A3.63,3.63,0,0,1,12.88,407c0,2.06-1,3.68-2.32,3.68Z"/><path class="cls-14" d="M10.51,403.4a3.61,3.61,0,0,0-2.68,3.76,3,3,0,0,0,1.86,3"/><path class="cls-14" d="M4.56,399.86a3.61,3.61,0,0,0-2.67,3.76,3,3,0,0,0,1.86,3"/><path class="cls-8" d="M482.25,293.39,329.89,205.8c-.59-.34-.66-.87-.15-1.16l5.09-3a2.25,2.25,0,0,1,2,.08L489.2,289.34c.59.34.65.87.14,1.16l-5.09,3A2.25,2.25,0,0,1,482.25,293.39Z"/><path class="cls-8" d="M325.31,217.16l-7.6-4.37c-.66-.38-.73-1-.17-1.29l8.84-5.14a2.49,2.49,0,0,1,2.22.08l7.61,4.37c.65.38.73,1,.16,1.29l-8.83,5.15A2.48,2.48,0,0,1,325.31,217.16Z"/><path class="cls-8" d="M336.12,223.38l-7.6-4.37c-.65-.38-.73-1-.16-1.29l8.83-5.14a2.48,2.48,0,0,1,2.23.08L347,217c.66.38.73,1,.16,1.29l-8.83,5.15A2.48,2.48,0,0,1,336.12,223.38Z"/><path class="cls-8" d="M346.84,229.54l-7.6-4.37c-.66-.38-.73-1-.17-1.29l8.84-5.14a2.43,2.43,0,0,1,2.22.08l7.61,4.37c.65.38.73,1,.16,1.29l-8.84,5.14A2.46,2.46,0,0,1,346.84,229.54Z"/><path class="cls-8" d="M357.45,235.64l-7.6-4.37c-.66-.38-.73-1-.17-1.29l8.84-5.15a2.46,2.46,0,0,1,2.22.09l7.6,4.37c.66.38.73,1,.17,1.29l-8.84,5.14A2.46,2.46,0,0,1,357.45,235.64Z"/><path class="cls-8" d="M368.26,241.86l-7.6-4.37c-.66-.38-.73-1-.16-1.29l8.83-5.15a2.48,2.48,0,0,1,2.23.09l7.6,4.37c.66.38.73,1,.16,1.29l-8.83,5.14A2.51,2.51,0,0,1,368.26,241.86Z"/><path class="cls-8" d="M379,248l-7.61-4.37c-.65-.37-.73-.95-.16-1.28l8.83-5.15a2.48,2.48,0,0,1,2.23.09l7.6,4.37c.66.38.73,1,.17,1.29l-8.84,5.14A2.46,2.46,0,0,1,379,248Z"/><path class="cls-8" d="M389.89,254.29l-7.6-4.37c-.65-.38-.73-1-.16-1.29l8.83-5.14a2.51,2.51,0,0,1,2.23.08l7.6,4.38c.66.37.73,1,.16,1.28l-8.83,5.15A2.48,2.48,0,0,1,389.89,254.29Z"/><path class="cls-8" d="M400.61,260.45,393,256.08c-.65-.38-.73-1-.16-1.29l8.84-5.14a2.49,2.49,0,0,1,2.22.08l7.6,4.37c.66.38.73,1,.17,1.29l-8.84,5.15A2.46,2.46,0,0,1,400.61,260.45Z"/><path class="cls-8" d="M411.22,266.55l-7.61-4.37c-.65-.38-.73-1-.16-1.29l8.83-5.14a2.51,2.51,0,0,1,2.23.08l7.6,4.37c.66.38.73,1,.17,1.29l-8.84,5.15A2.46,2.46,0,0,1,411.22,266.55Z"/><path class="cls-8" d="M421.83,272.65l-7.61-4.37c-.65-.38-.73-1-.16-1.29l8.83-5.14a2.48,2.48,0,0,1,2.23.08l7.6,4.37c.66.38.73,1,.17,1.29l-8.84,5.15A2.46,2.46,0,0,1,421.83,272.65Z"/><path class="cls-8" d="M432.64,278.87,425,274.5c-.66-.38-.73-1-.16-1.29l8.83-5.14a2.45,2.45,0,0,1,2.23.08l7.6,4.37c.66.38.73,1,.16,1.29L434.87,279A2.48,2.48,0,0,1,432.64,278.87Z"/><path class="cls-8" d="M443.46,285.09l-7.6-4.37c-.66-.38-.73-1-.17-1.29l8.84-5.15a2.46,2.46,0,0,1,2.22.09l7.61,4.37c.65.38.73,1,.16,1.29l-8.83,5.14A2.51,2.51,0,0,1,443.46,285.09Z"/><path class="cls-8" d="M454.17,291.25l-7.6-4.38c-.66-.37-.73-.95-.16-1.28l8.83-5.15a2.48,2.48,0,0,1,2.23.09l7.6,4.37c.66.38.73,1,.16,1.29l-8.83,5.14A2.51,2.51,0,0,1,454.17,291.25Z"/><path class="cls-8" d="M329.28,233.44l-7.6-4.37c-.66-.37-.73-.95-.16-1.28l8.83-5.15a2.48,2.48,0,0,1,2.23.09l7.6,4.37c.66.37.73,1,.16,1.29l-8.83,5.14A2.48,2.48,0,0,1,329.28,233.44Z"/><path class="cls-8" d="M340,239.6l-7.61-4.37c-.65-.38-.73-.95-.16-1.29l8.83-5.14a2.48,2.48,0,0,1,2.23.09l7.6,4.37c.66.37.73,1,.17,1.28l-8.84,5.15A2.46,2.46,0,0,1,340,239.6Z"/><path class="cls-8" d="M350.61,245.7,343,241.33c-.65-.38-.73-1-.16-1.29l8.83-5.14a2.48,2.48,0,0,1,2.23.09l7.6,4.37c.66.37.73.95.17,1.28l-8.84,5.15A2.46,2.46,0,0,1,350.61,245.7Z"/><path class="cls-8" d="M361.42,251.92l-7.6-4.37c-.66-.38-.73-1-.16-1.29l8.83-5.14a2.51,2.51,0,0,1,2.23.08l7.6,4.37c.66.38.73,1,.16,1.29L363.65,252A2.48,2.48,0,0,1,361.42,251.92Z"/><path class="cls-8" d="M372.13,258.08l-7.6-4.37c-.66-.38-.73-1-.16-1.29l8.83-5.14a2.48,2.48,0,0,1,2.23.08l7.6,4.37c.66.38.73,1,.16,1.29l-8.83,5.15A2.48,2.48,0,0,1,372.13,258.08Z"/><path class="cls-8" d="M383.05,264.36l-7.6-4.37c-.66-.38-.73-1-.16-1.29l8.83-5.15a2.48,2.48,0,0,1,2.23.09L394,258c.66.38.73,1,.16,1.29l-8.83,5.14A2.51,2.51,0,0,1,383.05,264.36Z"/><path class="cls-8" d="M393.77,270.52l-7.61-4.37c-.65-.38-.73-1-.16-1.29l8.83-5.15a2.48,2.48,0,0,1,2.23.09l7.6,4.37c.66.38.73,1,.17,1.29L396,270.6A2.49,2.49,0,0,1,393.77,270.52Z"/><path class="cls-8" d="M404.38,276.62l-7.61-4.38c-.65-.37-.73-.95-.16-1.28l8.83-5.15a2.48,2.48,0,0,1,2.23.09l7.6,4.37c.66.38.73,1,.16,1.29l-8.83,5.14A2.49,2.49,0,0,1,404.38,276.62Z"/><path class="cls-8" d="M415,282.72l-7.6-4.38c-.65-.37-.73-.95-.16-1.28l8.83-5.15a2.48,2.48,0,0,1,2.23.09l7.6,4.37c.66.38.73,1,.16,1.29l-8.83,5.14A2.51,2.51,0,0,1,415,282.72Z"/><path class="cls-8" d="M425.8,288.93l-7.6-4.37c-.66-.38-.73-.95-.16-1.29l8.83-5.14a2.48,2.48,0,0,1,2.23.09l7.6,4.37c.66.37.73,1,.16,1.28L428,289A2.48,2.48,0,0,1,425.8,288.93Z"/><path class="cls-8" d="M436.62,295.15,429,290.78c-.65-.38-.73-1-.16-1.29l8.83-5.14a2.51,2.51,0,0,1,2.23.08l7.6,4.37c.66.38.73,1,.17,1.29l-8.84,5.15A2.46,2.46,0,0,1,436.62,295.15Z"/><path class="cls-8" d="M319.76,242l-7.6-4.37c-.66-.38-.73-1-.16-1.29l8.83-5.14a2.48,2.48,0,0,1,2.23.08l7.6,4.37c.66.38.73,1,.16,1.29L322,242.05A2.45,2.45,0,0,1,319.76,242Z"/><path class="cls-8" d="M330.48,248.13l-7.61-4.37c-.65-.38-.73-1-.16-1.29l8.83-5.14a2.45,2.45,0,0,1,2.23.08l7.6,4.37c.66.38.73,1,.17,1.29l-8.84,5.14A2.46,2.46,0,0,1,330.48,248.13Z"/><path class="cls-8" d="M341.09,254.23l-7.61-4.37c-.65-.38-.73-1-.16-1.29l8.83-5.15a2.48,2.48,0,0,1,2.23.09l7.6,4.37c.66.38.73,1,.17,1.29l-8.84,5.14A2.46,2.46,0,0,1,341.09,254.23Z"/><path class="cls-8" d="M351.9,260.45l-7.6-4.37c-.66-.38-.73-1-.16-1.29l8.83-5.15a2.48,2.48,0,0,1,2.23.09l7.6,4.37c.66.38.73,1,.16,1.29l-8.83,5.14A2.51,2.51,0,0,1,351.9,260.45Z"/><path class="cls-8" d="M362.61,266.6l-7.6-4.37c-.65-.37-.73-1-.16-1.28l8.83-5.15a2.48,2.48,0,0,1,2.23.09l7.6,4.37c.66.38.73,1,.16,1.29l-8.83,5.14A2.48,2.48,0,0,1,362.61,266.6Z"/><path class="cls-8" d="M373.53,272.88l-7.6-4.37c-.66-.38-.73-1-.16-1.29l8.83-5.14a2.51,2.51,0,0,1,2.23.08l7.6,4.37c.66.38.73,1,.16,1.29L375.76,273A2.48,2.48,0,0,1,373.53,272.88Z"/><path class="cls-8" d="M384.25,279l-7.61-4.37c-.65-.38-.73-1-.16-1.29l8.83-5.14a2.51,2.51,0,0,1,2.23.08l7.6,4.37c.66.38.73,1,.17,1.29l-8.84,5.15A2.46,2.46,0,0,1,384.25,279Z"/><path class="cls-8" d="M394.86,285.14l-7.61-4.37c-.65-.38-.73-1-.16-1.29l8.83-5.14a2.51,2.51,0,0,1,2.23.08l7.6,4.37c.66.38.73,1,.17,1.29l-8.84,5.15A2.46,2.46,0,0,1,394.86,285.14Z"/><path class="cls-8" d="M405.47,291.24l-7.61-4.37c-.65-.38-.73-1-.16-1.29l8.83-5.14a2.48,2.48,0,0,1,2.23.08l7.6,4.37c.66.38.73,1,.16,1.29l-8.83,5.15A2.46,2.46,0,0,1,405.47,291.24Z"/><path class="cls-8" d="M416.28,297.46l-7.6-4.37c-.66-.38-.73-1-.16-1.29l8.83-5.14a2.45,2.45,0,0,1,2.23.08l7.6,4.37c.66.38.73,1,.16,1.29l-8.83,5.14A2.48,2.48,0,0,1,416.28,297.46Z"/><path class="cls-8" d="M427.1,303.68l-7.61-4.37c-.65-.38-.73-1-.16-1.29l8.83-5.15a2.48,2.48,0,0,1,2.23.09l7.6,4.37c.66.38.73,1,.17,1.29l-8.84,5.14A2.49,2.49,0,0,1,427.1,303.68Z"/><path class="cls-8" d="M313.11,252.28l-7.6-4.37c-.66-.38-.73-1-.16-1.29l8.83-5.14a2.51,2.51,0,0,1,2.23.08l7.6,4.37c.66.38.73,1,.16,1.29l-8.83,5.15A2.48,2.48,0,0,1,313.11,252.28Z"/><path class="cls-8" d="M323.72,258.38l-7.6-4.37c-.66-.38-.73-1-.16-1.29l8.83-5.14a2.51,2.51,0,0,1,2.23.08l7.6,4.37c.66.38.73,1,.16,1.29L326,258.47A2.48,2.48,0,0,1,323.72,258.38Z"/><path class="cls-8" d="M334.54,264.6l-7.61-4.37c-.65-.38-.73-1-.16-1.29l8.83-5.14a2.48,2.48,0,0,1,2.23.08l7.6,4.37c.66.38.73,1,.17,1.29l-8.84,5.14A2.43,2.43,0,0,1,334.54,264.6Z"/><path class="cls-8" d="M345.25,270.76l-7.6-4.37c-.66-.38-.73-1-.17-1.29l8.84-5.15a2.46,2.46,0,0,1,2.22.09l7.61,4.37c.65.38.73,1,.16,1.29l-8.83,5.14A2.48,2.48,0,0,1,345.25,270.76Z"/><path class="cls-8" d="M356.17,277l-7.6-4.38c-.66-.37-.73-1-.17-1.28l8.84-5.15a2.46,2.46,0,0,1,2.22.09l7.61,4.37c.65.38.73,1,.16,1.29l-8.83,5.14A2.51,2.51,0,0,1,356.17,277Z"/><path class="cls-8" d="M366.88,283.19l-7.6-4.37c-.66-.37-.73-.95-.16-1.28l8.83-5.15a2.48,2.48,0,0,1,2.23.09l7.6,4.37c.66.37.73.95.16,1.29l-8.83,5.14A2.48,2.48,0,0,1,366.88,283.19Z"/><path class="cls-8" d="M377.49,289.29l-7.6-4.37c-.66-.37-.73-.95-.16-1.28l8.83-5.15a2.48,2.48,0,0,1,2.23.09l7.6,4.37c.65.37.73.95.16,1.29l-8.83,5.14A2.48,2.48,0,0,1,377.49,289.29Z"/><path class="cls-8" d="M388.1,295.39,380.5,291c-.66-.37-.73-.95-.16-1.29l8.83-5.14a2.48,2.48,0,0,1,2.23.09l7.6,4.37c.65.37.73.95.16,1.28l-8.83,5.15A2.48,2.48,0,0,1,388.1,295.39Z"/><path class="cls-8" d="M398.92,301.61l-7.61-4.37c-.65-.38-.73-1-.16-1.29l8.83-5.14a2.51,2.51,0,0,1,2.23.08l7.6,4.37c.66.38.73,1,.17,1.29l-8.84,5.15A2.46,2.46,0,0,1,398.92,301.61Z"/><path class="cls-8" d="M409.73,307.83l-7.6-4.37c-.66-.38-.73-1-.16-1.29L410.8,297a2.48,2.48,0,0,1,2.23.08l7.6,4.37c.66.38.73,1,.16,1.29L412,307.92A2.48,2.48,0,0,1,409.73,307.83Z"/><path class="cls-8" d="M447.33,301.31l-7.6-4.37c-.66-.38-.73-1-.17-1.29l8.84-5.14a2.46,2.46,0,0,1,2.22.08l7.61,4.37c.65.38.73,1,.16,1.29l-8.83,5.15A2.48,2.48,0,0,1,447.33,301.31Z"/><path class="cls-8" d="M458.14,307.53l-7.6-4.37c-.65-.38-.73-1-.16-1.29l8.83-5.14a2.45,2.45,0,0,1,2.23.08l7.6,4.37c.66.38.73,1,.16,1.29l-8.83,5.14A2.48,2.48,0,0,1,458.14,307.53Z"/><path class="cls-8" d="M470,300.37,457.28,293c-.66-.37-.73-.95-.16-1.28L466,286.6a2.48,2.48,0,0,1,2.23.09L480.93,294c.66.38.73,1,.16,1.29l-8.83,5.14A2.51,2.51,0,0,1,470,300.37Z"/><path class="cls-8" d="M318.35,227.3,305.6,220c-.66-.37-.73-1-.17-1.28l8.84-5.15a2.46,2.46,0,0,1,2.22.09L329.25,221c.65.38.73,1,.16,1.29l-8.83,5.14A2.51,2.51,0,0,1,318.35,227.3Z"/><path class="cls-8" d="M309.17,235.74l-15.43-8.87c-.66-.38-.73-1-.16-1.29l8.83-5.14a2.48,2.48,0,0,1,2.23.08l15.43,8.87c.66.38.73,1,.16,1.29l-8.83,5.15A2.48,2.48,0,0,1,309.17,235.74Z"/><path class="cls-8" d="M302.19,246l-20.78-11.95c-.66-.37-.73-1-.17-1.28l8.84-5.15a2.46,2.46,0,0,1,2.22.09l20.79,11.95c.66.37.73,1,.16,1.29l-8.83,5.14A2.48,2.48,0,0,1,302.19,246Z"/><path class="cls-8" d="M433.63,321.57l-20.79-11.95c-.66-.38-.73-1-.16-1.29l8.83-5.14a2.45,2.45,0,0,1,2.23.08l20.79,12c.65.38.73,1,.16,1.29l-8.83,5.14A2.48,2.48,0,0,1,433.63,321.57Z"/><path class="cls-8" d="M446.07,314.44l-15.43-8.87c-.66-.38-.73-.95-.17-1.29l8.84-5.14a2.46,2.46,0,0,1,2.22.09L457,308.1c.66.37.73.95.17,1.29l-8.84,5.14A2.46,2.46,0,0,1,446.07,314.44Z"/><path class="cls-8" d="M276.79,245.54l-7.6-4.37c-.66-.38-.73-1-.16-1.29l8.83-5.14a2.45,2.45,0,0,1,2.23.08l7.6,4.37c.66.38.73,1,.16,1.29L279,245.62A2.48,2.48,0,0,1,276.79,245.54Z"/><path class="cls-8" d="M287.4,251.64l-7.6-4.37c-.66-.38-.73-1-.16-1.29l8.83-5.15a2.48,2.48,0,0,1,2.23.09l7.6,4.37c.66.38.73,1,.16,1.29l-8.83,5.14A2.48,2.48,0,0,1,287.4,251.64Z"/><path class="cls-8" d="M298.22,257.86l-7.6-4.37c-.66-.38-.73-1-.17-1.29l8.84-5.15a2.46,2.46,0,0,1,2.22.09l7.61,4.37c.65.38.73,1,.16,1.29l-8.83,5.14A2.51,2.51,0,0,1,298.22,257.86Z"/><path class="cls-8" d="M389.28,310.21l-7.61-4.37c-.65-.38-.73-1-.16-1.29l8.83-5.15a2.48,2.48,0,0,1,2.23.09l7.6,4.37c.66.38.73,1,.17,1.29l-8.84,5.14A2.49,2.49,0,0,1,389.28,310.21Z"/><path class="cls-8" d="M400.09,316.42l-7.6-4.37c-.66-.37-.73-.95-.16-1.28l8.83-5.15a2.48,2.48,0,0,1,2.23.09l7.6,4.37c.66.38.73.95.16,1.29l-8.83,5.14A2.48,2.48,0,0,1,400.09,316.42Z"/><path class="cls-8" d="M410.8,322.58l-7.6-4.37c-.65-.38-.73-.95-.16-1.29l8.83-5.14a2.48,2.48,0,0,1,2.23.09l7.6,4.37c.66.37.73.95.16,1.28L413,322.67A2.48,2.48,0,0,1,410.8,322.58Z"/><path class="cls-8" d="M311.63,265.43l-10.08-5.8c-.66-.37-.73-.95-.16-1.28l8.83-5.15a2.48,2.48,0,0,1,2.23.09l10.07,5.79c.66.38.73,1,.17,1.29l-8.84,5.14A2.49,2.49,0,0,1,311.63,265.43Z"/><path class="cls-8" d="M378.58,303.92l-10.07-5.79c-.66-.38-.73-1-.17-1.29l8.84-5.15a2.46,2.46,0,0,1,2.22.09l10.08,5.79c.66.38.73,1,.16,1.29L380.81,304A2.48,2.48,0,0,1,378.58,303.92Z"/><path class="cls-8" d="M365.19,296.22l-50.14-28.83c-.66-.38-.73-1-.17-1.29l8.84-5.14a2.49,2.49,0,0,1,2.22.08l50.15,28.83c.65.38.73,1,.16,1.29l-8.83,5.15A2.48,2.48,0,0,1,365.19,296.22Z"/><path class="cls-8" d="M421.64,328.67,414,324.3c-.65-.38-.73-1-.16-1.29l8.84-5.14a2.49,2.49,0,0,1,2.22.08l7.6,4.38c.66.37.73.95.17,1.28l-8.84,5.15A2.46,2.46,0,0,1,421.64,328.67Z"/><ellipse class="cls-2" cx="289.91" cy="111.71" rx="24.38" ry="14.03"/><path class="cls-15" d="M257.4,72.08a116.07,116.07,0,0,1,21.75,32l3.75,7.13,8.88-19.63C285,76,273.26,70,257.4,72.08Z"/><path class="cls-16" d="M314.07,112.92l-3.42,34.33-.21,2.46c0,6.53-9.19,11.81-20.53,11.81s-20.53-5.28-20.53-11.81h0l-3.66-37"/><ellipse class="cls-2" cx="595.41" cy="252.71" rx="24.38" ry="14.03"/><path class="cls-16" d="M573.37,257.69c3.91-4.74,12.31-8,22-8,10,0,18.6,3.46,22.36,8.42"/><path class="cls-16" d="M620,252.46l-4,51.62-.09-.37c0,6.53-9.19,11.81-20.53,11.81s-20.53-5.28-20.53-11.81h0l-4-51.5"/><path class="cls-15" d="M338.57,94.08s-18.83-13-34.17,11.34c-.35.56.84,15.33.84,15.33S323.07,99.75,338.57,94.08Z"/><path class="cls-15" d="M282.9,112.92c8.84-40,43.5-43,43.5-43s-22.5,17-22.5,42.16c0,0,.67,6.5,1.84,9.5,0,0-6,5.34-22.5,3.34"/><path class="cls-15" d="M241.57,92.92s16.33,4.66,27.67,22.33c0,0,1,4,2.33,5s8.33,5,11.67,4.67S281.24,81.25,241.57,92.92Z"/><path class="cls-17" d="M579.24,217.59l6,7.18a10.84,10.84,0,0,1,.44,13.3h0a10.86,10.86,0,0,0,.13,12.93l4.48,5.92"/><path class="cls-17" d="M590.24,217.59l6,7.18a10.84,10.84,0,0,1,.44,13.3h0a10.86,10.86,0,0,0,.13,12.93l4.48,5.92"/><path class="cls-18" d="M982.08,322.5l.06,8.73a12.7,12.7,0,0,1-6.33,10.22l-59.4,34.32a14.8,14.8,0,0,1-14.83,0L777.12,303.86c-2.87-1.74-6.24-5.32-6.24-10l-.1-8.59"/><path class="cls-19" d="M774.2,291.19l127.38,73.56a14.83,14.83,0,0,0,14.83,0l62.06-36a7.25,7.25,0,0,0,0-12.55L852,243.08a15.18,15.18,0,0,0-15.2,0l-62.65,36.25A6.85,6.85,0,0,0,774.2,291.19Z"/><line class="cls-20" x1="785.65" y1="297.58" x2="865.28" y2="251.04"/><line class="cls-21" x1="795.4" y1="275.83" x2="837.9" y2="251.08"/><ellipse class="cls-8" cx="788.38" cy="283.54" rx="4.83" ry="2.77"/><path class="cls-4" d="M670.37,243.13l0,7.12a10.35,10.35,0,0,0,5.16,8.34l48.46,28a12.06,12.06,0,0,0,12.09,0l101.54-58.68c2.33-1.42,5.08-4.33,5.08-8.17l.09-7"/><path class="cls-2" d="M839.94,217.59,736,277.59a12,12,0,0,1-12.09,0l-50.62-29.37a5.91,5.91,0,0,1,0-10.23l103.12-59.64a12.38,12.38,0,0,1,12.4,0L840,207.91A5.59,5.59,0,0,1,839.94,217.59Z"/><line class="cls-16" x1="765.65" y1="184.83" x2="830.4" y2="222.83"/><line class="cls-16" x1="740.15" y1="274.58" x2="676.9" y2="236.83"/><ellipse class="cls-8" cx="782.61" cy="184.99" rx="3.54" ry="2.03"/><line class="cls-21" x1="826.4" y1="206.83" x2="793.15" y2="187.58"/><path class="cls-7" d="M177.65,293.58,395.8,419.3a10.18,10.18,0,0,0,10.21,0l68.78-39.76a10.22,10.22,0,0,1,10.23,0l41.5,24.1a10.22,10.22,0,0,0,10.14.07L698.9,312.25"/><line class="cls-7" x1="164.9" y1="285.92" x2="170.15" y2="288.83"/><line class="cls-7" x1="269.24" y1="346.25" x2="290.24" y2="334.08"/><line class="cls-7" x1="297.57" y1="329.75" x2="302.9" y2="326.58"/><line class="cls-7" x1="627.24" y1="325.25" x2="650.9" y2="338.58"/><line class="cls-7" x1="616.9" y1="319.25" x2="621.07" y2="321.75"/><path class="cls-7" d="M681.57,322.58l70.36,39.62a7.41,7.41,0,0,0,7.27,0c12-6.78,36.7-20.62,36.7-20.62"/><line class="cls-7" x1="803.24" y1="337.42" x2="808.24" y2="334.58"/><path class="cls-2" d="M702.78,148.88c-4.83,2.79-9.18,7.69-12.19,13.23a13,13,0,0,0-7.28,2c-8.17,4.72-14.78,16.16-14.75,25.56s6.67,13.18,14.85,8.46l38.73-22.36c6-3.46,10.85-11.86,10.83-18.75s-4.9-9.67-10.9-6.21a17.51,17.51,0,0,0-3.37,2.57C716.67,146.64,710.31,144.53,702.78,148.88Z"/><path class="cls-2" d="M746.63,97a23.82,23.82,0,0,0-8.44,9.16,9,9,0,0,0-5,1.39c-5.65,3.27-10.23,11.19-10.21,17.69s4.62,9.13,10.28,5.86L760,115.57a16.5,16.5,0,0,0,7.49-13c0-4.77-3.39-6.7-7.54-4.3a12.42,12.42,0,0,0-2.34,1.77C756.24,95.41,751.84,94,746.63,97Z"/><path class="cls-2" d="M170.74,36.54c4.84,2.79,9.18,7.69,12.19,13.24a12.91,12.91,0,0,1,7.28,2C198.39,56.5,205,68,205,77.35s-6.68,13.18-14.86,8.46L151.38,63.45c-6-3.46-10.84-11.86-10.82-18.75s4.89-9.68,10.89-6.21a18.24,18.24,0,0,1,3.38,2.56C156.85,34.31,163.22,32.2,170.74,36.54Z"/><polygon class="cls-22" points="680.03 236.33 765.4 187.08 826.65 222.96 740.65 272.58 680.03 236.33"/><polygon class="cls-3" points="790.24 297.58 865.9 253.92 969.9 314.25 895.24 357.92 790.24 297.58"/><path class="cls-23" d="M472,132,468.38,130a.61.61,0,0,0-.82.26l-.12.23a2.66,2.66,0,0,1-3.58,1.11L447.38,123a2.66,2.66,0,0,1-1.11-3.58l.12-.23a.6.6,0,0,0-.26-.82l-3.65-1.92a4.29,4.29,0,0,0-5.79,1.8l-38.64,73.48a4.3,4.3,0,0,0,1.8,5.79L429.41,213a4.3,4.3,0,0,0,5.79-1.8l38.64-73.48A4.31,4.31,0,0,0,472,132Z"/><rect class="cls-24" x="458.11" y="156.42" width="38.38" height="66.49" rx="6.86" ry="6.86" transform="translate(138.57 -196.41) rotate(27.07)"/></g></svg>